<svg width="22" height="22" viewBox="0 0 22 22" fill="none" xmlns="http://www.w3.org/2000/svg">
<path d="M20.3339 9.66688H5.44055L11.9472 3.16021C12.4672 2.64021 12.4672 1.78688 11.9472 1.26688C11.8239 1.14327 11.6773 1.04521 11.5161 0.978301C11.3548 0.911393 11.1818 0.876953 11.0072 0.876953C10.8326 0.876953 10.6597 0.911393 10.4984 0.978301C10.3371 1.04521 10.1906 1.14327 10.0672 1.26688L1.28055 10.0535C1.15695 10.1769 1.05888 10.3234 0.991974 10.4847C0.925065 10.646 0.890625 10.8189 0.890625 10.9935C0.890625 11.1682 0.925065 11.3411 0.991974 11.5024C1.05888 11.6637 1.15695 11.8102 1.28055 11.9335L10.0672 20.7202C10.1907 20.8437 10.3372 20.9416 10.4985 21.0084C10.6598 21.0752 10.8326 21.1096 11.0072 21.1096C11.1818 21.1096 11.3547 21.0752 11.5159 21.0084C11.6772 20.9416 11.8238 20.8437 11.9472 20.7202C12.0707 20.5968 12.1686 20.4502 12.2354 20.2889C12.3022 20.1277 12.3366 19.9548 12.3366 19.7802C12.3366 19.6056 12.3022 19.4328 12.2354 19.2715C12.1686 19.1102 12.0707 18.9637 11.9472 18.8402L5.44055 12.3335H20.3339C21.0672 12.3335 21.6672 11.7335 21.6672 11.0002C21.6672 10.2669 21.0672 9.66688 20.3339 9.66688Z" fill="#F1F1F8"/>
</svg>
