<svg width="48" height="48" viewBox="0 0 48 48" fill="none" xmlns="http://www.w3.org/2000/svg">
<path d="M30 34V36C30 37.5913 29.3679 39.1174 28.2426 40.2426C27.1174 41.3679 25.5913 42 24 42C22.4087 42 20.8826 41.3679 19.7574 40.2426C18.6321 39.1174 18 37.5913 18 36V34M30 34H18M30 34H37.18C37.946 34 38.33 34 38.64 33.896C38.9316 33.7973 39.1964 33.6326 39.414 33.4147C39.6315 33.1969 39.7957 32.9317 39.894 32.64C40 32.328 40 31.944 40 31.172C40 30.834 40 30.666 39.972 30.504C39.9226 30.2012 39.8042 29.9138 39.626 29.664C39.53 29.53 39.41 29.41 39.172 29.172L38.392 28.392C38.2676 28.2675 38.1689 28.1197 38.1017 27.957C38.0344 27.7943 37.9999 27.62 38 27.444V20C38 18.1615 37.6379 16.341 36.9343 14.6424C36.2307 12.9439 35.1995 11.4005 33.8995 10.1005C32.5995 8.80048 31.0561 7.76925 29.3576 7.06569C27.659 6.36212 25.8385 6 24 6C22.1615 6 20.341 6.36212 18.6424 7.06569C16.9439 7.76925 15.4005 8.80048 14.1005 10.1005C12.8005 11.4005 11.7693 12.9439 11.0657 14.6424C10.3621 16.341 10 18.1615 10 20V27.444C10.0001 27.62 9.96557 27.7943 9.89831 27.957C9.83105 28.1197 9.7324 28.2675 9.608 28.392L8.828 29.172C8.588 29.412 8.47 29.53 8.376 29.662C8.19606 29.912 8.07628 30.2001 8.026 30.504C8 30.664 8 30.834 8 31.172C8 31.944 8 32.328 8.104 32.64C8.20266 32.9322 8.36755 33.1976 8.58578 33.4155C8.80402 33.6333 9.06967 33.7978 9.362 33.896C9.672 34 10.054 34 10.82 34H18" stroke="#F1F1F8" stroke-width="3" stroke-linecap="round" stroke-linejoin="round"/>
</svg>
