<svg width="32" height="32" viewBox="0 0 32 32" fill="none" xmlns="http://www.w3.org/2000/svg">
<path d="M30.36 12.2801L22.74 3.82006C22.5055 3.55975 22.2185 3.35208 21.8979 3.21074C21.5773 3.0694 21.2304 2.9976 20.88 3.00006H3.5C3.1717 3.00006 2.84661 3.06473 2.54329 3.19036C2.23998 3.316 1.96438 3.50015 1.73223 3.73229C1.50009 3.96444 1.31594 4.24004 1.1903 4.54335C1.06466 4.84667 1 5.17176 1 5.50006V26.5001C1 27.1631 1.26339 27.799 1.73223 28.2678C2.20107 28.7367 2.83696 29.0001 3.5 29.0001H28.5C29.163 29.0001 29.7989 28.7367 30.2678 28.2678C30.7366 27.799 31 27.1631 31 26.5001V14.0001C31.0145 13.366 30.7854 12.7505 30.36 12.2801ZM18.36 5.50006V9.50006H8.5V5.50006H18.36ZM28.46 26.5001H3.5V5.50006H6V9.50006C6 9.82837 6.06466 10.1535 6.1903 10.4568C6.31594 10.7601 6.50009 11.0357 6.73223 11.2678C7.20107 11.7367 7.83696 12.0001 8.5 12.0001H18.4C18.7283 12.0001 19.0534 11.9354 19.3567 11.8098C19.66 11.6841 19.9356 11.5 20.1678 11.2678C20.3999 11.0357 20.5841 10.7601 20.7097 10.4568C20.8353 10.1535 20.9 9.82837 20.9 9.50006V5.50006L28.5 14.0001L28.46 26.5001Z" fill="white"/>
<path d="M16 15.1203C14.7143 15.0825 13.466 15.556 12.5288 16.437C11.5915 17.318 11.0418 18.5346 11 19.8203C11.047 21.1023 11.599 22.3139 12.5356 23.1906C13.4723 24.0673 14.7176 24.5381 16 24.5003C17.2824 24.5381 18.5277 24.0673 19.4644 23.1906C20.401 22.3139 20.953 21.1023 21 19.8203C20.9582 18.5346 20.4085 17.318 19.4712 16.437C18.534 15.556 17.2857 15.0825 16 15.1203ZM16 22.0003C15.3803 22.0388 14.7704 21.8316 14.3024 21.4235C13.8345 21.0155 13.5462 20.4394 13.5 19.8203C13.5411 19.1975 13.8273 18.6164 14.2958 18.2041C14.7643 17.7918 15.3771 17.5819 16 17.6203C16.6229 17.5819 17.2357 17.7918 17.7042 18.2041C18.1727 18.6164 18.4589 19.1975 18.5 19.8203C18.4538 20.4394 18.1655 21.0155 17.6976 21.4235C17.2296 21.8316 16.6197 22.0388 16 22.0003Z" fill="white"/>
</svg>
