<svg width="32" height="32" viewBox="0 0 32 32" fill="none" xmlns="http://www.w3.org/2000/svg">
<g clip-path="url(#clip0_253_4713)">
<path d="M22.3911 18.1333C22.646 17.4511 22.7755 16.7283 22.7733 16C22.7733 14.3828 22.1308 12.8318 20.9873 11.6882C19.8437 10.5447 18.2927 9.90222 16.6755 9.90222C15.9561 9.90325 15.2427 10.0327 14.5688 10.2844L16 11.76C16.2176 11.7259 16.4375 11.7081 16.6577 11.7067C17.8012 11.7043 18.8992 12.1544 19.712 12.9588C20.5247 13.7632 20.9861 14.8565 20.9955 16C20.9941 16.2203 20.9762 16.4401 20.9422 16.6578L22.3911 18.1333Z" fill="#F1F1F8"/>
<path d="M30.48 15.5822C27.4845 10.0444 22.2311 6.69333 16.4178 6.69333C14.835 6.69674 13.2627 6.95178 11.76 7.44888L13.1911 8.88888C14.2452 8.61665 15.3291 8.47631 16.4178 8.47111C21.4222 8.47111 25.9733 11.2622 28.6845 15.9644C27.689 17.7083 26.3708 19.2468 24.8 20.4978L26.0622 21.76C27.8815 20.2932 29.392 18.4806 30.5067 16.4267L30.7378 16L30.48 15.5822Z" fill="#F1F1F8"/>
<path d="M4.32893 5.13777L8.29338 9.10221C5.78701 10.715 3.73885 12.9469 2.34671 15.5822L2.1156 16L2.34671 16.4267C5.34227 21.9644 10.5956 25.3155 16.4089 25.3155C18.6781 25.316 20.9178 24.8024 22.96 23.8133L27.4045 28.2578L28.96 26.9244L5.84893 3.81332L4.32893 5.13777ZM12.9956 13.8044L18.9067 19.7155C18.239 20.1294 17.47 20.3509 16.6845 20.3555C16.1138 20.3556 15.5487 20.2427 15.0217 20.0235C14.4948 19.8043 14.0164 19.483 13.614 19.0782C13.2117 18.6734 12.8934 18.1931 12.6774 17.6648C12.4615 17.1365 12.3521 16.5707 12.3556 16C12.3652 15.2235 12.5865 14.4644 12.9956 13.8044ZM11.7067 12.5155C10.8751 13.6883 10.4853 15.1176 10.6064 16.5502C10.7274 17.9828 11.3515 19.3264 12.3681 20.343C13.3848 21.3596 14.7283 21.9837 16.1609 22.1048C17.5936 22.2258 19.0228 21.8361 20.1956 21.0044L21.6178 22.4267C19.9715 23.1307 18.1995 23.4935 16.4089 23.4933C11.4045 23.4933 6.85338 20.7022 4.14227 16C5.44366 13.6964 7.31738 11.7676 9.58227 10.4L11.7067 12.5155Z" fill="#F1F1F8"/>
</g>
<defs>
<clipPath id="clip0_253_4713">
<rect width="32" height="32" fill="white"/>
</clipPath>
</defs>
</svg>
