<svg width="32" height="32" viewBox="0 0 32 32" fill="none" xmlns="http://www.w3.org/2000/svg">
<path d="M20.0001 26.5067C20.0534 26.9067 19.9201 27.3333 19.6134 27.6133C19.49 27.7369 19.3435 27.835 19.1822 27.9019C19.0209 27.9688 18.848 28.0033 18.6734 28.0033C18.4988 28.0033 18.3259 27.9688 18.1646 27.9019C18.0033 27.835 17.8567 27.7369 17.7334 27.6133L12.3867 22.2667C12.2414 22.1245 12.1309 21.9506 12.0638 21.7586C11.9967 21.5666 11.9749 21.3618 12.0001 21.16V14.6777C12.0001 14.4546 11.9254 14.2378 11.788 14.062L5.61339 6.16C5.39686 5.88204 5.29916 5.52968 5.34164 5.17991C5.38411 4.83014 5.5633 4.5114 5.84005 4.29333C6.09339 4.10667 6.37339 4 6.66672 4H25.3334C25.6267 4 25.9067 4.10667 26.1601 4.29333C26.4368 4.5114 26.616 4.83014 26.6585 5.17991C26.7009 5.52968 26.6032 5.88204 26.3867 6.16L20.2121 14.062C20.0747 14.2378 20.0001 14.4546 20.0001 14.6777V26.5067ZM11.4392 6.66667C10.6056 6.66667 10.1379 7.62656 10.6517 8.28297L14.4542 13.1418C14.5919 13.3177 14.6667 13.5347 14.6667 13.7581V20.3591C14.6667 20.6243 14.7721 20.8787 14.9596 21.0662L15.6263 21.7329C16.2562 22.3629 17.3334 21.9167 17.3334 21.0258V13.7453C17.3334 13.5216 17.4084 13.3043 17.5465 13.1283L21.3454 8.28373C21.86 7.62746 21.3924 6.66667 20.5584 6.66667H11.4392Z" fill="#F1F1F8"/>
</svg>
