<svg width="42" height="42" viewBox="0 0 42 42" fill="none" xmlns="http://www.w3.org/2000/svg">
<path d="M28.9725 22.5855L28.1763 23.3782C28.1763 23.3782 26.281 25.2612 21.1098 20.1197C15.9385 14.9782 17.8338 13.0952 17.8338 13.0952L18.3343 12.5947C19.5715 11.3662 19.6888 9.39221 18.609 7.95021L16.404 5.00496C15.067 3.21996 12.4858 2.98371 10.9545 4.50621L8.20705 7.23621C7.4493 7.99221 6.94179 8.96871 7.00304 10.0537C7.16054 12.831 8.41704 18.8037 15.424 25.7722C22.8563 33.1607 29.83 33.4547 32.6808 33.1887C33.5838 33.1047 34.3678 32.6462 34.9995 32.0162L37.4845 29.5452C39.1645 27.8775 38.692 25.0162 36.543 23.849L33.2005 22.0307C31.79 21.266 30.075 21.49 28.9725 22.5855Z" fill="#F1F1F8"/>
</svg>
