<svg width="24" height="24" viewBox="0 0 24 24" fill="none" xmlns="http://www.w3.org/2000/svg">
<path d="M22.8404 23.2929C22.4499 23.6834 21.8168 23.6834 21.4262 23.2929L14.3662 16.2329C14.0059 15.8726 13.4355 15.8472 13.0024 16.1156C12.522 16.4133 11.9989 16.6636 11.4333 16.8667C10.5667 17.1778 9.64445 17.3333 8.66667 17.3333C6.24445 17.3333 4.19467 16.4942 2.51733 14.816C0.840001 13.1378 0.000889594 11.088 7.05467e-07 8.66667C-0.000888183 6.24533 0.838223 4.19556 2.51733 2.51733C4.19645 0.839111 6.24622 0 8.66667 0C11.0871 0 13.1373 0.839111 14.8173 2.51733C16.4973 4.19556 17.336 6.24533 17.3333 8.66667C17.3333 9.64444 17.1778 10.5667 16.8667 11.4333C16.6636 11.9989 16.4133 12.5219 16.1156 13.0024C15.8472 13.4355 15.8726 14.0059 16.2329 14.3662L23.2929 21.4262C23.6834 21.8168 23.6834 22.4499 23.2929 22.8404L22.8404 23.2929ZM8.66667 14.6667C10.3333 14.6667 11.7502 14.0836 12.9173 12.9173C14.0844 11.7511 14.6676 10.3342 14.6667 8.66667C14.6658 6.99911 14.0827 5.58267 12.9173 4.41733C11.752 3.252 10.3351 2.66844 8.66667 2.66667C6.99822 2.66489 5.58178 3.24844 4.41733 4.41733C3.25289 5.58622 2.66933 7.00267 2.66667 8.66667C2.664 10.3307 3.24756 11.7476 4.41733 12.9173C5.58711 14.0871 7.00356 14.6702 8.66667 14.6667Z" fill="#F1F1F8"/>
</svg>
