<svg width="24" height="24" viewBox="0 0 24 24" fill="none" xmlns="http://www.w3.org/2000/svg">
<path d="M12.8538 3.49996C12.7688 3.34821 12.6448 3.22187 12.4947 3.13393C12.3446 3.04599 12.1738 2.99963 11.9998 2.99963C11.8258 2.99963 11.655 3.04599 11.5049 3.13393C11.3548 3.22187 11.2309 3.34821 11.1458 3.49996C10.9458 3.86396 10.7535 4.23263 10.5688 4.60596C9.987 5.78692 9.49235 7.00885 9.08881 8.26196C8.94981 8.69296 8.53781 8.99196 8.06581 9.00496C6.63503 9.04258 5.2089 9.18462 3.79881 9.42996C3.02481 9.56596 2.73381 10.448 3.28381 10.986C3.40914 11.1093 3.53581 11.231 3.66381 11.351C4.62087 12.2548 5.63279 13.0988 6.69381 13.878C7.06081 14.147 7.21181 14.608 7.07181 15.03C6.5385 16.633 6.15683 18.2826 5.93181 19.957C5.83181 20.712 6.63981 21.245 7.34181 20.885C8.73385 20.1712 10.065 19.3444 11.3218 18.413C11.5187 18.2693 11.7561 18.1918 11.9998 18.1918C12.2435 18.1918 12.481 18.2693 12.6778 18.413C13.9344 19.3448 15.2655 20.1716 16.6578 20.885C17.3588 21.245 18.1678 20.712 18.0678 19.957C18.0291 19.6736 17.9868 19.392 17.9408 19.112C17.7098 17.727 17.3711 16.3622 16.9278 15.03C16.7878 14.608 16.9378 14.147 17.3058 13.878C18.5095 12.996 19.6491 12.0295 20.7158 10.986C21.2658 10.448 20.9758 9.56596 20.2008 9.42996C18.7909 9.18319 17.3647 9.04113 15.9338 9.00496C15.7076 9.00136 15.488 8.92809 15.3049 8.79513C15.1218 8.66216 14.9842 8.47598 14.9108 8.26196C14.3795 6.61263 13.6907 5.01728 12.8538 3.49996Z" stroke="#D1D1D8" stroke-width="1.5" stroke-linecap="round" stroke-linejoin="round"/>
</svg>
