<svg width="42" height="42" viewBox="0 0 42 42" fill="none" xmlns="http://www.w3.org/2000/svg">
<path d="M20.9895 3.5C17.5283 3.5 14.1449 4.52636 11.267 6.44928C8.38917 8.37221 6.14615 11.1053 4.82162 14.303C3.49708 17.5007 3.15053 21.0194 3.82577 24.4141C4.50101 27.8088 6.16772 30.927 8.61514 33.3744C11.0626 35.8218 14.1808 37.4885 17.5754 38.1637C20.9701 38.839 24.4888 38.4924 27.6865 37.1679C30.8842 35.8434 33.6173 33.6003 35.5402 30.7225C37.4632 27.8446 38.4895 24.4612 38.4895 21C38.4895 18.7019 38.0369 16.4262 37.1574 14.303C36.2779 12.1798 34.9889 10.2507 33.3639 8.62563C31.7389 7.00061 29.8097 5.71157 27.6865 4.83211C25.5633 3.95265 23.2876 3.5 20.9895 3.5ZM26.5545 30.016C26.4892 30.1795 26.3897 30.3271 26.2626 30.4489C26.1355 30.5708 25.9838 30.664 25.8177 30.7224C25.6516 30.7807 25.4749 30.8028 25.2996 30.7872C25.1242 30.7717 24.9542 30.7187 24.801 30.632L20.0498 26.9395L17.0013 29.7535C16.9305 29.8057 16.8477 29.8394 16.7606 29.8513C16.6735 29.8632 16.5847 29.8531 16.5025 29.8218L17.087 24.591L17.1045 24.6068L17.1168 24.5035C17.1168 24.5035 25.6655 16.7195 26.0138 16.3888C26.3673 16.058 26.25 15.9863 26.25 15.9863C26.271 15.5838 25.6183 15.9863 25.6183 15.9863L14.2905 23.2733L9.57426 21.6667C9.57426 21.6667 8.84976 21.4078 8.78151 20.8355C8.70976 20.2685 9.59701 19.9605 9.59701 19.9605L28.3518 12.509C28.3518 12.509 29.8935 11.823 29.8935 12.9605L26.5545 30.016Z" fill="#F1F1F8"/>
</svg>
