<svg width="34" height="33" viewBox="0 0 34 33" fill="none" xmlns="http://www.w3.org/2000/svg">
<path fill-rule="evenodd" clip-rule="evenodd" d="M4.39911 5.77135C4.63462 5.75163 4.8717 5.77853 5.09681 5.85049C5.32192 5.92246 5.53064 6.03808 5.71104 6.19075C5.89145 6.34342 6.03999 6.53015 6.14819 6.74026C6.25638 6.95038 6.32211 7.17975 6.34161 7.41528L7.86863 25.8474C7.9431 26.747 8.35301 27.5856 9.01703 28.197C9.68105 28.8084 10.5506 29.1478 11.4533 29.1479H22.8241C23.7267 29.1478 24.5963 28.8084 25.2603 28.197C25.9243 27.5856 26.3342 26.747 26.4087 25.8474L27.9375 7.41528C27.9816 6.9434 28.2101 6.50797 28.5733 6.20363C28.9366 5.89929 29.4054 5.75063 29.8777 5.78997C30.3499 5.82931 30.7876 6.05346 31.0956 6.41371C31.4035 6.77396 31.5568 7.24119 31.5222 7.71385L29.9933 26.1442C29.8444 27.943 29.0249 29.6201 27.6972 30.8428C26.3695 32.0655 24.6308 32.7445 22.8259 32.7451H11.4551C9.64953 32.7454 7.90989 32.0668 6.58146 30.844C5.25304 29.6212 4.43296 27.9436 4.284 26.1442L2.75518 7.71385C2.73547 7.47834 2.76236 7.24125 2.83432 7.01614C2.90629 6.79103 3.02191 6.58231 3.17458 6.40191C3.32726 6.22151 3.51399 6.07297 3.7241 5.96477C3.93421 5.85657 4.16358 5.79085 4.39911 5.77135Z" fill="#F1F1F8"/>
<path fill-rule="evenodd" clip-rule="evenodd" d="M0.951172 7.56456C0.951172 7.08754 1.14067 6.63006 1.47797 6.29275C1.81528 5.95545 2.27276 5.76595 2.74978 5.76595H31.5276C32.0046 5.76595 32.4621 5.95545 32.7994 6.29275C33.1367 6.63006 33.3262 7.08754 33.3262 7.56456C33.3262 8.04158 33.1367 8.49907 32.7994 8.83637C32.4621 9.17368 32.0046 9.36317 31.5276 9.36317H2.74978C2.27276 9.36317 1.81528 9.17368 1.47797 8.83637C1.14067 8.49907 0.951172 8.04158 0.951172 7.56456ZM13.5415 11.1618C14.0185 11.1618 14.476 11.3513 14.8133 11.6886C15.1506 12.0259 15.3401 12.4834 15.3401 12.9604V23.7521C15.3401 24.2291 15.1506 24.6866 14.8133 25.0239C14.476 25.3612 14.0185 25.5507 13.5415 25.5507C13.0644 25.5507 12.6069 25.3612 12.2696 25.0239C11.9323 24.6866 11.7428 24.2291 11.7428 23.7521V12.9604C11.7428 12.4834 11.9323 12.0259 12.2696 11.6886C12.6069 11.3513 13.0644 11.1618 13.5415 11.1618ZM20.7359 11.1618C21.2129 11.1618 21.6704 11.3513 22.0077 11.6886C22.345 12.0259 22.5345 12.4834 22.5345 12.9604V20.1548C22.5345 20.6319 22.345 21.0893 22.0077 21.4266C21.6704 21.764 21.2129 21.9535 20.7359 21.9535C20.2589 21.9535 19.8014 21.764 19.4641 21.4266C19.1268 21.0893 18.9373 20.6319 18.9373 20.1548V12.9604C18.9373 12.4834 19.1268 12.0259 19.4641 11.6886C19.8014 11.3513 20.2589 11.1618 20.7359 11.1618Z" fill="#F1F1F8"/>
<path fill-rule="evenodd" clip-rule="evenodd" d="M14.3346 3.96734C13.9573 3.96763 13.5896 4.08658 13.2836 4.30737C12.9776 4.52815 12.7488 4.83959 12.6296 5.19759L11.6511 8.13292C11.5004 8.58562 11.176 8.95989 10.7493 9.1734C10.3226 9.38692 9.82856 9.42218 9.37587 9.27144C8.92317 9.1207 8.5489 8.79631 8.33539 8.36962C8.12187 7.94293 8.08661 7.44889 8.23735 6.9962L9.21579 4.05907C9.57401 2.98481 10.2611 2.05049 11.1798 1.38842C12.0985 0.726348 13.2022 0.370096 14.3346 0.370117H19.9409C21.0733 0.370096 22.177 0.726348 23.0957 1.38842C24.0144 2.05049 24.7015 2.98481 25.0598 4.05907L26.04 6.9962C26.1146 7.22035 26.1444 7.45701 26.1276 7.69266C26.1108 7.92831 26.0477 8.15834 25.942 8.36962C25.8362 8.58089 25.6899 8.76928 25.5114 8.92401C25.3329 9.07875 25.1256 9.19681 24.9015 9.27144C24.6773 9.34608 24.4407 9.37584 24.205 9.35902C23.9694 9.3422 23.7393 9.27912 23.5281 9.1734C23.1014 8.95989 22.777 8.58562 22.6262 8.13292L21.6478 5.19759C21.5286 4.83988 21.3001 4.52865 20.9945 4.30789C20.6888 4.08713 20.3215 3.968 19.9445 3.96734H14.3346Z" fill="#F1F1F8"/>
</svg>
