<svg width="123" height="59" viewBox="0 0 123 59" fill="none" xmlns="http://www.w3.org/2000/svg">
<path d="M5.05614 51.4829V50.8109L6.33614 50.5549C7.23214 50.3629 7.68014 49.8402 7.68014 48.9869V40.2509C7.68014 38.7576 7.68014 37.2642 7.68014 35.7709C7.68014 34.2776 7.66947 32.7842 7.64814 31.2909H5.12014C4.43747 31.2909 3.93614 31.4722 3.61614 31.8349C3.29614 32.1976 2.97614 32.7096 2.65614 33.3709L1.53614 35.7389H0.640137L0.800137 30.3309H19.1681L19.3281 35.7389H18.4321L17.3121 33.3709C16.9921 32.7096 16.6721 32.1976 16.3521 31.8349C16.0321 31.4722 15.5308 31.2909 14.8481 31.2909H12.2881V48.9869C12.2881 49.8616 12.7361 50.3842 13.6321 50.5549L14.9441 50.8109V51.4829H5.05614Z" fill="#F1F1F8"/>
<path d="M26.2346 51.9309C24.656 51.9309 23.2693 51.6002 22.0746 50.9389C20.9013 50.2776 19.984 49.3389 19.3226 48.1229C18.6826 46.9069 18.3626 45.4562 18.3626 43.7709C18.3626 42.0856 18.704 40.6349 19.3866 39.4189C20.0906 38.2029 21.0293 37.2749 22.2026 36.6349C23.3973 35.9736 24.7413 35.6429 26.2346 35.6429C27.728 35.6429 29.0613 35.9736 30.2346 36.6349C31.4293 37.2749 32.368 38.2029 33.0506 39.4189C33.7546 40.6136 34.1066 42.0642 34.1066 43.7709C34.1066 45.4562 33.776 46.9176 33.1146 48.1549C32.4746 49.3709 31.568 50.3096 30.3946 50.9709C29.2213 51.6109 27.8346 51.9309 26.2346 51.9309ZM26.2346 51.0349C27.0026 51.0349 27.6213 50.8322 28.0906 50.4269C28.5813 50.0002 28.9333 49.2642 29.1466 48.2189C29.36 47.1736 29.4666 45.7122 29.4666 43.8349C29.4666 41.9362 29.36 40.4642 29.1466 39.4189C28.9333 38.3522 28.5813 37.6162 28.0906 37.2109C27.6213 36.7842 27.0026 36.5709 26.2346 36.5709C25.4666 36.5709 24.848 36.7842 24.3786 37.2109C23.9093 37.6162 23.5573 38.3522 23.3226 39.4189C23.1093 40.4642 23.0026 41.9362 23.0026 43.8349C23.0026 45.7122 23.1093 47.1736 23.3226 48.2189C23.5573 49.2642 23.9093 50.0002 24.3786 50.4269C24.848 50.8322 25.4666 51.0349 26.2346 51.0349Z" fill="#F1F1F8"/>
<path d="M35.2659 58.8749V58.2669L35.6819 58.1389C36.1086 58.0322 36.4072 57.8509 36.5779 57.5949C36.7486 57.3602 36.8339 57.0189 36.8339 56.5709C36.8339 55.6962 36.8339 54.8642 36.8339 54.0749C36.8552 53.3069 36.8659 52.5602 36.8659 51.8349V43.0349C36.8659 42.3736 36.8659 41.8082 36.8659 41.3389C36.8659 40.8482 36.8552 40.3042 36.8339 39.7069C36.8339 39.2589 36.7592 38.9176 36.6099 38.6829C36.4606 38.4269 36.1726 38.2562 35.7459 38.1709L35.2659 38.0749V37.4989L40.4179 35.6429L40.8019 35.9629L41.0899 37.1469C42.5619 36.1442 44.2259 35.6429 46.0819 35.6429C47.8952 35.6429 49.3459 36.3256 50.4339 37.6909C51.5432 39.0562 52.0979 41.0722 52.0979 43.7389C52.0979 46.3202 51.4899 48.3362 50.2739 49.7869C49.0792 51.2162 47.4472 51.9309 45.3779 51.9309C44.5459 51.9309 43.7566 51.8562 43.0099 51.7069C42.2846 51.5576 41.6339 51.3336 41.0579 51.0349V51.9949C41.0579 52.6349 41.0579 53.3282 41.0579 54.0749C41.0792 54.8216 41.0899 55.6322 41.0899 56.5069C41.0899 57.3602 41.4632 57.8936 42.2099 58.1069L42.8179 58.2669V58.8749H35.2659ZM43.8739 50.6509C45.0046 50.6509 45.8899 50.1496 46.5299 49.1469C47.1912 48.1229 47.5219 46.3629 47.5219 43.8669C47.5219 41.3922 47.2126 39.6642 46.5939 38.6829C45.9752 37.6802 45.1006 37.1789 43.9699 37.1789C43.5646 37.1789 43.1272 37.2429 42.6579 37.3709C42.1886 37.4989 41.6872 37.7122 41.1539 38.0109V50.1069C42.0072 50.4696 42.9139 50.6509 43.8739 50.6509Z" fill="#F1F1F8"/>
<path d="M53.0174 51.4829V50.8109L53.5294 50.6509C53.9774 50.4802 54.2761 50.2562 54.4254 49.9789C54.5961 49.7016 54.6814 49.3282 54.6814 48.8589C54.7027 47.6429 54.7134 46.4269 54.7134 45.2109C54.7134 43.9736 54.7134 42.7362 54.7134 41.4989V40.3469C54.7134 39.1096 54.7027 37.8829 54.6814 36.6669C54.6814 35.4296 54.6814 34.1922 54.6814 32.9549C54.6814 32.4429 54.6067 32.0589 54.4574 31.8029C54.3081 31.5256 53.9987 31.3122 53.5294 31.1629L53.0174 31.0029V30.3309H62.0414C64.6014 30.3309 66.4574 30.8109 67.6094 31.7709C68.7614 32.7096 69.3374 33.9042 69.3374 35.3549C69.3374 36.4642 68.9321 37.4669 68.1214 38.3629C67.3107 39.2376 65.8921 39.8669 63.8654 40.2509C66.2121 40.5069 67.9081 41.1149 68.9534 42.0749C69.9987 43.0349 70.5214 44.2082 70.5214 45.5949C70.5214 46.2776 70.3721 46.9709 70.0734 47.6749C69.7747 48.3576 69.2627 48.9869 68.5374 49.5629C67.8334 50.1389 66.8734 50.6082 65.6574 50.9709C64.4414 51.3122 62.9054 51.4829 61.0494 51.4829H53.0174ZM59.2574 40.0269H60.7614C62.2121 40.0269 63.2574 39.7069 63.8974 39.0669C64.5587 38.4056 64.8894 37.2856 64.8894 35.7069C64.8894 34.0642 64.5907 32.9122 63.9934 32.2509C63.3961 31.5896 62.4574 31.2589 61.1774 31.2589H59.2574V40.0269ZM59.2574 50.5549H61.0174C62.6174 50.5549 63.8121 50.1602 64.6014 49.3709C65.3907 48.5816 65.7854 47.3122 65.7854 45.5629C65.7854 43.8776 65.4014 42.6936 64.6334 42.0109C63.8867 41.3069 62.6494 40.9549 60.9214 40.9549H59.2574V50.5549Z" fill="#F1F1F8"/>
<path d="M75.6654 33.8829C74.9614 33.8829 74.3641 33.6589 73.8734 33.2109C73.3827 32.7629 73.1374 32.1976 73.1374 31.5149C73.1374 30.8109 73.3827 30.2456 73.8734 29.8189C74.3641 29.3709 74.9614 29.1469 75.6654 29.1469C76.3694 29.1469 76.9667 29.3709 77.4574 29.8189C77.9481 30.2456 78.1934 30.8109 78.1934 31.5149C78.1934 32.1976 77.9481 32.7629 77.4574 33.2109C76.9667 33.6589 76.3694 33.8829 75.6654 33.8829ZM71.9854 51.4829V50.8749L72.4654 50.7469C72.8921 50.6189 73.1801 50.4269 73.3294 50.1709C73.4787 49.9149 73.5641 49.5736 73.5854 49.1469V43.2589C73.5854 42.5976 73.5854 41.9896 73.5854 41.4349C73.5854 40.8589 73.5747 40.2722 73.5534 39.6749C73.5534 39.2482 73.4681 38.9176 73.2974 38.6829C73.1481 38.4269 72.8601 38.2562 72.4334 38.1709L71.9854 38.0749V37.4989L77.5854 35.6429L77.9694 35.9949L77.8734 40.5389V49.1789C77.8734 49.6056 77.9481 49.9469 78.0974 50.2029C78.2681 50.4589 78.5561 50.6509 78.9614 50.7789L79.3134 50.8749V51.4829H71.9854Z" fill="#F1F1F8"/>
<path d="M87.4546 51.9309C86.196 51.9309 85.0653 51.6536 84.0626 51.0989C83.06 50.5229 82.2706 49.6482 81.6946 48.4749C81.14 47.2802 80.8626 45.7656 80.8626 43.9309C80.8626 42.0962 81.1826 40.5709 81.8226 39.3549C82.4626 38.1176 83.316 37.1896 84.3826 36.5709C85.4493 35.9522 86.6226 35.6429 87.9026 35.6429C88.6706 35.6429 89.4066 35.7389 90.1106 35.9309C90.8146 36.1016 91.4333 36.3682 91.9666 36.7309V32.5709C91.9666 32.1229 91.892 31.8029 91.7426 31.6109C91.6146 31.3976 91.3373 31.2376 90.9106 31.1309L90.2706 31.0029V30.3949L95.8386 29.0189L96.2546 29.3069L96.1266 33.8189V49.2109C96.1266 49.6162 96.2013 49.9576 96.3506 50.2349C96.5 50.4909 96.7666 50.6722 97.1506 50.7789L97.5026 50.8749V51.4829L92.1906 51.8349L91.9026 50.4909C91.3266 50.9389 90.6653 51.2909 89.9186 51.5469C89.172 51.8029 88.3506 51.9309 87.4546 51.9309ZM89.2146 50.4589C90.132 50.4589 90.996 50.1602 91.8066 49.5629V37.6589C91.0173 37.1682 90.164 36.9229 89.2466 36.9229C88.2013 36.9229 87.3053 37.4776 86.5586 38.5869C85.812 39.6749 85.4386 41.4349 85.4386 43.8669C85.4386 46.2989 85.7906 48.0056 86.4946 48.9869C87.1986 49.9682 88.1053 50.4589 89.2146 50.4589Z" fill="#F1F1F8"/>
<path d="M87.9891 19.3284C87.3764 18.9811 87.1655 18.205 87.518 17.595L88.4694 15.9488C88.8219 15.3388 89.6044 15.1259 90.2171 15.4732L102.148 22.2366C103.218 22.8428 103.586 24.1971 102.97 25.2617C102.355 26.3263 100.99 26.6979 99.9203 26.0918L87.9891 19.3284Z" fill="#F1F1F8"/>
<path d="M93.189 15.8992C94.2283 16.5567 94.29 18.3018 93.3267 19.7969C92.3635 21.292 90.74 21.971 89.7007 21.3134C88.6613 20.6559 88.5997 18.9108 89.5629 17.4157C90.5262 15.9206 92.1496 15.2416 93.189 15.8992Z" fill="#F1F1F8"/>
<path d="M81.3344 9.11935C82.3737 9.77688 82.4354 11.5219 81.4721 13.0171C80.5089 14.5122 78.8854 15.1912 77.8461 14.5336C76.8068 13.8761 76.7451 12.131 77.7084 10.6359C78.6716 9.14081 80.2951 8.46182 81.3344 9.11935Z" fill="#F1F1F8"/>
<path d="M76.3401 17.411C75.8764 17.1216 75.7384 16.5126 76.032 16.0508L82.227 6.30694C82.5206 5.84515 83.1345 5.70545 83.5982 5.9949L94.8775 13.0356C95.3412 13.3251 95.4791 13.9341 95.1855 14.3959L88.9906 24.1397C88.697 24.6015 88.0831 24.7412 87.6194 24.4518L76.3401 17.411Z" fill="#F1F1F8"/>
<path d="M96.021 7.63099C95.3389 8.65628 93.0875 8.37751 90.9923 7.00835C88.897 5.63918 87.7515 3.69809 88.4336 2.67281C89.1157 1.64752 91.3672 1.92629 93.4624 3.29545C95.5576 4.66462 96.7031 6.60571 96.021 7.63099Z" fill="#F1F1F8"/>
<path d="M82.749 4.93758C81.5705 4.20408 81.2182 2.65803 81.9622 1.48436C82.7062 0.310698 84.2648 -0.0461295 85.4433 0.687363L99.5394 9.46032C100.718 10.1938 101.07 11.7399 100.326 12.9135C99.5822 14.0872 98.0237 14.444 96.8451 13.7105L82.749 4.93758Z" fill="#F1F1F8"/>
<path d="M82.7711 28.0588C82.0706 29.0718 79.8247 28.7528 77.7548 27.3464C75.6849 25.9399 74.5748 23.9785 75.2753 22.9655C75.9758 21.9525 78.2216 22.2714 80.2915 23.6779C82.3615 25.0844 83.4716 27.0457 82.7711 28.0588Z" fill="#F1F1F8"/>
<path d="M72.4369 21.4689C71.2642 20.7263 70.9241 19.1775 71.6773 18.0096C72.4305 16.8417 73.9917 16.4969 75.1644 17.2396L89.1906 26.1219C90.3633 26.8645 90.7034 28.4133 89.9502 29.5812C89.197 30.7491 87.6357 31.0939 86.463 30.3512L72.4369 21.4689Z" fill="#F1F1F8"/>
<path d="M101.229 27.8285C100.379 27.3462 100.086 26.2687 100.575 25.4217L101.898 23.1334C102.387 22.2865 103.474 21.9908 104.324 22.473L120.889 31.8631C122.375 32.7051 122.886 34.5865 122.031 36.0654C121.176 37.5443 119.279 38.0605 117.794 37.2185L101.229 27.8285Z" fill="#F1F1F8"/>
</svg>
