<svg width="42" height="42" viewBox="0 0 42 42" fill="none" xmlns="http://www.w3.org/2000/svg">
<path d="M14.1156 10.2632C13.7904 10.2156 13.4586 10.2811 13.1759 10.4487H13.1514C12.4951 10.8337 11.9036 11.3185 11.3996 11.889C10.9796 12.3737 10.7521 12.8637 10.6926 13.3362C10.6576 13.6162 10.6821 13.8997 10.7644 14.1675L10.7959 14.185C11.2684 15.5727 11.8844 16.908 12.6369 18.1645C13.6076 19.9291 14.8016 21.5612 16.1894 23.0207L16.2314 23.0802L16.2979 23.1292L16.3381 23.1765L16.3871 23.2185C17.8518 24.6103 19.4878 25.81 21.2556 26.7885C23.2769 27.8892 24.5036 28.409 25.2404 28.626V28.6365C25.4556 28.703 25.6516 28.7327 25.8494 28.7327C26.4771 28.6877 27.0714 28.4325 27.5364 28.0082C28.1051 27.5042 28.5864 26.911 28.9609 26.2512V26.239C29.3126 25.574 29.1936 24.9475 28.6861 24.5222C27.6676 23.6305 26.5652 22.8393 25.3944 22.1597C24.6104 21.7345 23.8141 21.9917 23.4921 22.4222L22.8044 23.2902C22.4509 23.7207 21.8104 23.6612 21.8104 23.6612L21.7929 23.6717C17.0136 22.452 15.7379 17.6132 15.7379 17.6132C15.7379 17.6132 15.6784 16.9552 16.1211 16.6192L16.9821 15.9262C17.3951 15.5902 17.6821 14.7957 17.2394 14.0117C16.5614 12.8417 15.772 11.7399 14.8821 10.7217C14.6875 10.4826 14.4149 10.3197 14.1121 10.2615M22.1919 8.15973C21.9598 8.15973 21.7372 8.25192 21.5731 8.41601C21.409 8.58011 21.3169 8.80266 21.3169 9.03473C21.3169 9.26679 21.409 9.48935 21.5731 9.65345C21.7372 9.81754 21.9598 9.90973 22.1919 9.90973C24.4039 9.90973 26.2414 10.6325 27.6956 12.0185C28.4429 12.7762 29.0256 13.674 29.4071 14.6575C29.7904 15.6427 29.9654 16.6945 29.9199 17.748C29.9101 17.98 29.993 18.2065 30.1502 18.3775C30.3074 18.5484 30.526 18.65 30.7581 18.6597C30.9902 18.6695 31.2166 18.5866 31.3876 18.4294C31.5586 18.2722 31.6601 18.0535 31.6699 17.8215C31.7221 16.5257 31.507 15.2331 31.0381 14.024C30.567 12.8088 29.8497 11.7041 28.9311 10.7795L28.9136 10.762C27.1094 9.03823 24.8274 8.15973 22.1919 8.15973Z" fill="#F1F1F8"/>
<path d="M22.1312 11.037C21.8992 11.037 21.6766 11.1292 21.5125 11.2932C21.3484 11.4573 21.2562 11.6799 21.2562 11.912C21.2562 12.144 21.3484 12.3666 21.5125 12.5307C21.6766 12.6948 21.8992 12.787 22.1312 12.787H22.161C23.757 12.9007 24.919 13.4327 25.7327 14.306C26.5675 15.2055 26.9997 16.3237 26.9665 17.7062C26.9611 17.9383 27.0482 18.163 27.2085 18.3308C27.3688 18.4987 27.5893 18.596 27.8214 18.6013C28.0534 18.6067 28.2781 18.5196 28.446 18.3593C28.6138 18.199 28.7111 17.9785 28.7165 17.7465C28.7585 15.9317 28.174 14.3655 27.0155 13.116V13.1125C25.8307 11.842 24.205 11.17 22.2485 11.0387L22.2187 11.0352L22.1312 11.037Z" fill="#F1F1F8"/>
<path d="M22.0976 13.968C21.9805 13.9576 21.8625 13.971 21.7507 14.0073C21.6389 14.0436 21.5355 14.102 21.4468 14.1791C21.3581 14.2562 21.2858 14.3504 21.2343 14.456C21.1827 14.5617 21.153 14.6767 21.1469 14.7941C21.1408 14.9115 21.1584 15.0289 21.1987 15.1393C21.2389 15.2498 21.301 15.351 21.3813 15.4369C21.4615 15.5228 21.5582 15.5916 21.6657 15.6393C21.7731 15.687 21.8891 15.7126 22.0066 15.7145C22.7381 15.753 23.2054 15.9735 23.4994 16.2692C23.7951 16.5667 24.0156 17.0445 24.0559 17.7917C24.0581 17.9092 24.0839 18.0249 24.1317 18.1322C24.1796 18.2394 24.2486 18.3359 24.3346 18.4159C24.4205 18.496 24.5217 18.5579 24.6321 18.5979C24.7425 18.638 24.8598 18.6555 24.9771 18.6492C25.0944 18.643 25.2092 18.6132 25.3148 18.5617C25.4203 18.5101 25.5144 18.4379 25.5914 18.3492C25.6684 18.2605 25.7267 18.1573 25.763 18.0455C25.7992 17.9338 25.8126 17.816 25.8024 17.699C25.7464 16.649 25.4174 15.7215 24.7436 15.039C24.0664 14.3565 23.1441 14.024 22.0976 13.968Z" fill="#F1F1F8"/>
<path fill-rule="evenodd" clip-rule="evenodd" d="M12.544 3.58159C18.1126 2.33682 23.8874 2.33682 29.456 3.58159L30.0493 3.71284C31.6767 4.07767 33.1713 4.88609 34.3673 6.04847C35.5634 7.21084 36.4141 8.68174 36.8253 10.2981C38.2401 15.868 38.2401 21.7032 36.8253 27.2731C36.4141 28.8894 35.5634 30.3603 34.3673 31.5227C33.1713 32.6851 31.6767 33.4935 30.0493 33.8583L29.4543 33.9896C25.9664 34.7684 22.3877 35.0623 18.8195 34.8628L14.1768 39.0173C14.0017 39.174 13.7878 39.2809 13.5574 39.3268C13.327 39.3726 13.0885 39.3558 12.8668 39.278C12.6451 39.2002 12.4483 39.0644 12.2971 38.8846C12.1458 38.7049 12.0455 38.4878 12.0068 38.2561L11.2385 33.6676C9.76573 33.2085 8.43514 32.3797 7.37363 31.2603C6.31212 30.1408 5.5551 28.7682 5.17476 27.2731C3.75994 21.7032 3.75994 15.868 5.17476 10.2981C5.5859 8.68174 6.43666 7.21084 7.6327 6.04847C8.82874 4.88609 10.3233 4.07767 11.9508 3.71284L12.544 3.58159ZM28.8838 6.14184C23.692 4.98125 18.308 4.98125 13.1163 6.14184L12.5213 6.27484C11.3679 6.53416 10.3089 7.10759 9.46135 7.93165C8.61381 8.75572 8.01086 9.79825 7.71926 10.9438C6.412 16.0899 6.412 21.4812 7.71926 26.6273C8.011 27.7731 8.61421 28.8158 9.46208 29.6399C10.3099 30.464 11.3694 31.0373 12.523 31.2963L12.6805 31.3313C12.9353 31.3883 13.1673 31.52 13.3469 31.7095C13.5264 31.8991 13.6454 32.1378 13.6885 32.3953L14.203 35.4718L17.479 32.5406C17.6098 32.4232 17.7629 32.3333 17.9291 32.2761C18.0954 32.219 18.2714 32.1959 18.4468 32.2081C21.9451 32.4551 25.4608 32.1928 28.8838 31.4293L29.477 31.2963C30.6306 31.0373 31.6901 30.464 32.5379 29.6399C33.3858 28.8158 33.989 27.7731 34.2808 26.6273C35.5863 21.4823 35.5863 16.0906 34.2808 10.9438C33.989 9.79803 33.3858 8.75534 32.5379 7.93126C31.6901 7.10718 30.6306 6.53387 29.477 6.27484L28.8838 6.14184Z" fill="#F1F1F8"/>
</svg>
